<?xml version="1.0" encoding="UTF-8"?><svg id="Layer_2" xmlns="http://www.w3.org/2000/svg" viewBox="0 0 668.6999 101.3273"><g id="Components"><g id="_37b6e4a2-7a89-4e3b-9b02-0b6a88d9f8ac_1"><path d="M470.6546,44.53l8.3094,2.2704c1.2984.355,2.1998,1.5344,2.1998,2.8811v22.9981c0,10.3411,4.5056,15.5149,13.5084,15.5149,2.842,0,6.8206-.8271,11.9117-2.4656v13.0985c-4.3299,1.6552-9.1282,2.5-14.4116,2.5-7.4229,0-13.4665-2.3745-18.1394-7.1311-4.6729-4.7565-7.0046-11.6775-7.0046-20.7639V15.3944l14.1356-3.1348v18.7667h25.42v13.2574h-35.8958c-.1469,0-.1747.2073-.0335.2463" style="fill:#242424;"/><path d="M24.3807,31.0237h0c0,37.9986,30.8038,68.8025,68.8024,68.8025V31.0237H24.3807Z" style="fill:#8e6bfc;"/><path d="M38.0172,99.8261h0c0-20.9963-17.021-38.0172-38.0172-38.0172v38.0172h38.0172Z" style="fill:#8e6bfc;"/><path d="M156.2804,29.5225c7.7556,0,13.8228,2.377,18.2013,7.1303,4.3785,4.7537,6.5675,11.3427,6.5675,19.765v43.4083h-14.1359v-40.531c0-10.8403-5.0038-16.2624-15.0114-16.2624-6.0047,0-10.6135,1.857-13.8228,5.567-3.2115,3.7118-4.8162,8.9032-4.8162,15.5742v35.6523h-14.1359V31.0237h14.1359v11.3837c5.2539-8.5888,12.9258-12.8849,23.0175-12.8849Z" style="fill:#242424;"/><path d="M220.5438,29.5225c10.9244,0,19.6188,3.7743,26.0824,11.3212,6.4623,7.5486,9.3607,17.0344,8.6944,28.459h-55.918c.5826,6.1729,2.8342,10.9891,6.7555,14.4486,3.9188,3.4616,8.8385,5.1914,14.7612,5.1914,4.1689,0,7.8807-.8754,11.1331-2.6267,3.2525-1.7513,5.6705-4.2944,7.2558-7.631h14.6362c-2.5862,7.4235-6.8392,13.0531-12.7598,16.8877-5.9224,3.8373-12.7188,5.7546-20.3904,5.7546-10.4263,0-18.9953-3.356-25.7072-10.0701-6.7141-6.7124-10.0701-15.2813-10.0701-25.7072s3.3344-19.0341,10.0076-25.8323c6.671-6.7961,15.1774-10.1952,25.5192-10.1952ZM220.5438,41.7821c-5.2539,0-9.6535,1.4813-13.1975,4.4406-3.5457,2.9614-5.9418,6.8176-7.1928,11.5713h40.0303c-1.0846-4.8356-3.3577-8.7134-6.8176-11.6338-3.4616-2.9183-7.7362-4.378-12.8223-4.378Z" style="fill:#242424;"/><path d="M294.9758,29.5225c10.008,0,18.4515,3.4207,25.3325,10.2577,6.8793,6.8392,10.3207,15.387,10.3207,25.6447s-3.4207,18.8072-10.2586,25.6447c-6.8396,6.8392-15.3046,10.2577-25.3946,10.2577-10.0076,0-18.4515-3.4401-25.3316-10.3202-6.8802-6.8806-10.3202-15.4064-10.3202-25.5822,0-10.2577,3.4595-18.8055,10.3828-25.6447,6.9211-6.837,15.3439-10.2577,25.2691-10.2577ZM310.1756,49.3501c-4.1288-4.2103-9.1951-6.3174-15.1998-6.3174s-11.0706,2.1071-15.199,6.3174c-4.1279,4.2124-6.1923,9.5699-6.1923,16.0748,0,6.5891,2.0428,11.968,6.1298,16.1374,4.0852,4.171,9.1731,6.2548,15.2615,6.2548s11.1745-2.0838,15.2619-6.2548c4.0848-4.1693,6.1289-9.5483,6.1289-16.1374,0-6.505-2.0631-11.8624-6.191-16.0748Z" style="fill:#242424;"/><path d="M378.6645,31.0237h15.0109l-24.768,68.8025h-17.1387l-24.7684-68.8025h15.0118l18.2634,54.0412,18.3889-54.0412Z" style="fill:#242424;"/><path d="M446.106,31.0237h14.1355v68.8025h-14.1355v-11.5088c-5.5045,8.6746-13.5102,13.0099-24.018,13.0099-9.2572,0-16.8688-3.356-22.8304-10.0701-5.9633-6.7124-8.9441-15.3245-8.9441-25.8323,0-10.4242,3.0024-19.0147,9.0071-25.7698,6.0039-6.7551,13.5507-10.1326,22.6415-10.1326,10.5087,0,18.5558,4.4212,24.144,13.2601v-11.7589ZM425.0894,87.8171c6.0867,0,11.134-2.0838,15.1369-6.2548,4.0029-4.1693,6.0047-9.5483,6.0047-16.1374,0-6.505-2.0019-11.8624-6.0047-16.0748-4.0029-4.2103-9.0502-6.3174-15.1369-6.3174-6.0039,0-10.9261,2.0855-14.7608,6.2548-3.8373,4.171-5.7546,9.5505-5.7546,16.1374s1.9173,11.968,5.7546,16.1374c3.8347,4.171,8.757,6.2548,14.7608,6.2548Z" style="fill:#242424;"/><path d="M518.3205,0c2.6677,0,4.8783.8133,6.63,2.4396,1.7509,1.6262,2.6263,3.6902,2.6263,6.1919,0,2.5862-.8754,4.7127-2.6263,6.3799-1.7517,1.6694-3.9623,2.5021-6.63,2.5021-2.5866,0-4.7541-.8327-6.505-2.5021-1.7517-1.6672-2.6272-3.7937-2.6272-6.3799,0-2.5017.8754-4.5656,2.6272-6.1919,1.7509-1.6262,3.9183-2.4396,6.505-2.4396ZM511.3152,99.8261V31.0237h14.1355v68.8025h-14.1355Z" style="fill:#242424;"/><path d="M566.115,29.5225c10.0076,0,18.4515,3.4207,25.3316,10.2577,6.8802,6.8392,10.3207,15.387,10.3207,25.6447s-3.4207,18.8072-10.2586,25.6447c-6.8388,6.8392-15.3042,10.2577-25.3937,10.2577-10.0076,0-18.4515-3.4401-25.3325-10.3202-6.8802-6.8806-10.3198-15.4064-10.3198-25.5822,0-10.2577,3.4595-18.8055,10.3828-25.6447,6.9216-6.837,15.3439-10.2577,25.2695-10.2577ZM581.314,49.3501c-4.1279-4.2103-9.1942-6.3174-15.199-6.3174s-11.071,2.1071-15.199,6.3174c-4.1288,4.2124-6.1927,9.5699-6.1927,16.0748,0,6.5891,2.0424,11.968,6.1298,16.1374,4.0848,4.171,9.1727,6.2548,15.2619,6.2548s11.1745-2.0838,15.2611-6.2548c4.0857-4.1693,6.1298-9.5483,6.1298-16.1374,0-6.505-2.064-11.8624-6.1919-16.0748Z" style="fill:#242424;"/><path d="M643.9315,29.5225c7.7556,0,13.8233,2.377,18.2013,7.1303,4.378,4.7537,6.5671,11.3427,6.5671,19.765v43.4083h-14.1355v-40.531c0-10.8403-5.0034-16.2624-15.0109-16.2624-6.0047,0-10.6139,1.857-13.8233,5.567-3.2119,3.7118-4.8162,8.9032-4.8162,15.5742v35.6523h-14.1355V31.0237h14.1355v11.3837c5.2535-8.5888,12.9254-12.8849,23.0175-12.8849Z" style="fill:#242424;"/></g></g></svg>